<svg width="161" height="59" viewBox="0 0 161 59" fill="none" xmlns="http://www.w3.org/2000/svg">
<path d="M41.4066 37.6001H43.1619V43.0772L46.8859 37.6001H48.7396V45.8157H47.0171V40.4558L43.2767 45.8157H41.4066V37.6001Z" fill="#90EC65"/>
<path d="M50.9379 45.8157V37.6001H52.8081V40.8365H56.4665V37.6001H58.3202V45.8157H56.4665V42.2424H52.8081V45.8157H50.9379Z" fill="#90EC65"/>
<path d="M62.602 45.8157V38.9913H59.8787V37.6001H67.179V38.9913H64.4558V45.8157H62.602Z" fill="#90EC65"/>
<path d="M68.6883 45.8157V37.6001H75.5292V38.9913H70.5421V40.8219H75.1683V42.2131H70.5421V44.4538H75.6933V45.8157H68.6883Z" fill="#90EC65"/>
<path d="M79.4337 38.9913V41.3198H80.4508H80.6312H80.7953H80.9593H81.0906L81.2218 41.2905H81.3531L81.4843 41.2612H81.5991L81.6812 41.2319H81.7632L81.8452 41.2027L81.9272 41.1734L82.0421 41.1294L82.1569 41.0855L82.2718 41.0123L82.3538 40.9391L82.4358 40.8658L82.5178 40.7926V40.7633L82.5999 40.6608L82.6491 40.5583L82.6819 40.4558L82.7147 40.3533L82.7475 40.2361V40.119V40.0018L82.7147 39.8847L82.6819 39.7821L82.6491 39.665L82.5999 39.5625L82.5506 39.4892L82.4686 39.3867L82.4358 39.3574L82.3538 39.2842L82.2718 39.211L82.1569 39.1378L82.0421 39.0938L81.9272 39.0499L81.8124 39.0206L81.6812 38.9913H81.6648L81.6155 38.962H81.5335H81.4515L81.3367 38.9328H81.2218H81.0906H80.9593L80.7953 38.9035H80.6641H80.4836H80.3524H79.4337V38.9913ZM77.5635 45.8157V37.6001H80.5492L80.7297 37.6294H80.9101H81.0742H81.2382H81.4023H81.5335H81.6976L81.8288 37.6587H81.9437H82.0749H82.1897L82.3046 37.688H82.3866L82.5014 37.7173H82.5834L82.6655 37.7465H82.7147L82.7639 37.7758L82.8951 37.8051L83.01 37.8344L83.1248 37.8783L83.2397 37.9223L83.3545 37.9662L83.4693 38.0101L83.5514 38.0834L83.6662 38.1273L83.7482 38.2005L83.8631 38.2737L83.9451 38.347L84.0271 38.4495L84.1091 38.552L84.1419 38.5813L84.224 38.6545L84.2732 38.757L84.3224 38.8302L84.3716 38.9328L84.4208 39.0353L84.47 39.1378L84.5028 39.2403L84.5521 39.3428L84.5849 39.46L84.6177 39.5625V39.6796L84.6505 39.7821L84.6833 39.8993V40.0165V40.1336V40.2361V40.3533V40.4704V40.5876L84.6505 40.7047L84.6177 40.8073L84.5849 40.9244L84.5521 41.0269L84.5193 41.1294L84.4864 41.2319L84.4372 41.3345L84.4044 41.437L84.3552 41.5395L84.2732 41.642L84.224 41.7445L84.1419 41.847L84.0599 41.9495L84.0107 42.0228L83.9287 42.096L83.8138 42.1692L83.7318 42.2424L83.6498 42.3156L83.5678 42.3596L83.4529 42.4328L83.3381 42.4767L83.2232 42.55L83.092 42.5939L82.9772 42.6378L82.8623 42.6671L82.7475 42.7111L82.6327 42.7403H82.5506L82.4686 42.7696L82.3538 42.7989H82.2718L82.1569 42.8282H82.0421H81.9929L81.8616 42.8575H81.7468H81.6155L81.4843 42.8868H81.3367H81.2054H81.0414H80.9101H80.7461H80.6312H79.4173V45.9914H77.5635V45.8157Z" fill="#90EC65"/>
<path d="M91.3274 42.5793L90.0642 39.5332L88.8338 42.5793H91.3274ZM94.7725 45.8157H92.7218L91.9344 43.9705H88.2432L87.4886 45.8157H85.52L89.0963 37.6001H91.0649L94.7725 45.8157Z" fill="#90EC65"/>
<path d="M96.1013 37.6006H97.955V41.1006L98.1191 41.086L98.2503 41.0567L98.3816 41.042L98.4964 41.0128L98.5948 40.9688L98.6769 40.9102L98.7589 40.8663L98.7917 40.8224L98.8081 40.7638L98.8737 40.7199L98.8901 40.6759L98.9558 40.6027L99.005 40.5002L99.0542 40.427L99.1034 40.3391L99.169 40.222L99.2182 40.1048L99.2674 39.973L99.3495 39.8265L99.3987 39.6655L99.4643 39.5483L99.5463 39.4019L99.5955 39.2554L99.6448 39.1383L99.7268 39.0211L99.776 38.8893L99.8416 38.7721L99.9237 38.655L99.9729 38.5525L100.055 38.4646L100.104 38.3914L100.153 38.2889L100.235 38.2303L100.301 38.1571L100.35 38.0838L100.432 38.0253L100.481 37.9813L100.563 37.9374L100.613 37.8935L100.695 37.8349L100.777 37.8202L100.892 37.7617L100.974 37.747L101.072 37.7177L101.187 37.6884L101.285 37.6738L101.4 37.6445L101.531 37.6152L101.646 37.6006H101.777L101.941 37.5713H102.073H102.237L102.401 37.5566H102.499H102.581H102.713H102.778V38.7721H102.499H102.335H102.204L102.073 38.8014L101.941 38.8307L101.827 38.8454L101.745 38.8747L101.663 38.8893L101.564 38.9479L101.482 39.0211L101.367 39.0943L101.318 39.1822L101.236 39.2847L101.203 39.3286L101.154 39.4019L101.138 39.4751L101.072 39.5629L101.056 39.6655L100.99 39.768L100.941 39.8851L100.892 40.0023L100.826 40.1487L100.777 40.2952L100.76 40.3391L100.695 40.4563L100.645 40.5734L100.613 40.6759L100.563 40.7638L100.514 40.8663L100.449 40.9688L100.399 41.0567L100.317 41.1299L100.268 41.2031L100.186 41.2764L100.104 41.3496L100.006 41.4228L99.8908 41.496L99.7596 41.5693L99.6776 41.5839L99.8088 41.6425L99.9237 41.6571L100.022 41.7011L100.137 41.7596L100.235 41.8329L100.317 41.8768L100.432 41.95L100.514 42.0232L100.596 42.0965L100.678 42.1843L100.728 42.2429L100.777 42.2868L100.826 42.3747L100.892 42.4479L100.941 42.5212L101.023 42.6237L101.072 42.6969L101.138 42.7848L101.203 42.8873L101.269 43.0044L101.318 43.1069L101.4 43.1948L101.449 43.312L101.531 43.4438L101.581 43.5609L101.613 43.5756L102.86 45.8162H100.678L99.5627 43.7074L99.5135 43.6341L99.4643 43.5316L99.4315 43.4877L99.3823 43.4145L99.3331 43.2973L99.251 43.1509L99.169 43.0044L99.087 42.8873L99.005 42.7701L98.9229 42.6676L98.8737 42.5797L98.7917 42.5065L98.7261 42.4479L98.6769 42.404L98.6605 42.3747L98.5784 42.3308L98.4636 42.3161L98.3488 42.2575L98.2503 42.2429H98.0863H97.955V45.8162H96.1013V37.6006Z" fill="#90EC65"/>
<path d="M106.272 45.8157V38.9913H103.549V37.6001H110.882V38.9913H108.126V45.8157H106.272Z" fill="#90EC65"/>
<path d="M112.408 37.6001H114.13V43.0772L117.871 37.6001H119.708V45.8157H117.986V40.4558L114.262 45.8157H112.408V37.6001Z" fill="#90EC65"/>
<path d="M123.793 42.2424V44.4538H125.483H125.663H125.844H126.008L126.139 44.4245H126.27H126.402H126.516L126.598 44.3952H126.68H126.73H126.763L126.877 44.3659L127.009 44.322L127.123 44.278L127.238 44.2341L127.32 44.1609L127.435 44.0876L127.468 44.0584L127.55 43.9851L127.599 43.8826L127.632 43.7801L127.681 43.6776L127.714 43.5604V43.4579L127.747 43.3408L127.714 43.2236V43.1065L127.681 43.0039L127.632 42.9014L127.583 42.7989L127.534 42.6964L127.452 42.5939L127.369 42.5207L127.287 42.4475L127.173 42.4035L127.058 42.3596L126.943 42.3156L126.861 42.2864H126.812L126.73 42.2571H126.615L126.5 42.2278H126.385L126.27 42.1985H126.139H126.008H125.844L125.68 42.1692H125.516H125.335H125.253H123.793V42.2424ZM123.793 38.962V40.8658H125.007H125.188H125.368H125.532H125.663H125.795H125.926H126.041H126.156H126.238L126.287 40.8365H126.336L126.467 40.8073L126.598 40.778L126.713 40.7487L126.828 40.7047L126.943 40.6608L127.025 40.5876L127.107 40.5437L127.189 40.4704L127.238 40.3679L127.287 40.2654L127.32 40.1629L127.353 40.0604L127.386 39.9432V39.87V39.7821L127.353 39.6796L127.32 39.5625L127.271 39.46L127.222 39.3574L127.173 39.2842L127.14 39.2549L127.058 39.211L126.976 39.1378L126.861 39.0938L126.746 39.0499L126.631 39.0206L126.5 38.9913H126.418L126.369 38.962H126.32H126.238H126.156H126.041H125.959H125.827H125.696L125.565 38.9328H125.401H125.22H125.04H124.876H123.793V38.962ZM121.939 37.6001H125.598L125.762 37.6294H125.926H126.09H126.221H126.352H126.484H126.598L126.73 37.6587H126.845H126.959L127.074 37.688H127.156L127.238 37.7173H127.271L127.386 37.7465L127.517 37.7758L127.632 37.8051L127.763 37.8491L127.878 37.8783L127.993 37.9223L128.108 37.9662L128.223 38.0394L128.255 38.0687L128.37 38.1419L128.485 38.1859L128.567 38.2591L128.649 38.3616L128.731 38.4348L128.813 38.5373L128.895 38.6106L128.944 38.7131L128.994 38.757L129.043 38.8595L129.092 38.962L129.125 39.0792L129.174 39.1817L129.207 39.2842L129.24 39.4014V39.5039L129.272 39.621V39.7382V39.7675V39.87V39.9872L129.24 40.0897L129.207 40.2068L129.174 40.3093L129.141 40.4119L129.092 40.529L129.043 40.6315L128.994 40.734L128.944 40.8365L128.912 40.8658L128.862 40.9391L128.78 41.0416L128.698 41.1148L128.616 41.2173L128.501 41.2905L128.419 41.3637L128.305 41.4077L128.223 41.4809L128.108 41.5248L127.976 41.5688L127.944 41.5981L128.075 41.6274L128.19 41.6713L128.321 41.7152L128.436 41.7592L128.551 41.8031L128.666 41.847L128.78 41.891L128.862 41.9642L128.977 42.0374L129.059 42.1106L129.141 42.1838L129.223 42.2571L129.272 42.3303L129.355 42.4035L129.404 42.506L129.453 42.6085L129.502 42.7111L129.551 42.8136L129.601 42.9161L129.633 43.0186L129.666 43.1357L129.699 43.2383V43.3554L129.732 43.4579V43.5751V43.6044V43.7215L129.699 43.824V43.9412L129.666 44.0437L129.633 44.1609L129.601 44.2634L129.568 44.3659L129.519 44.483L129.486 44.5856L129.437 44.6881L129.404 44.7174L129.355 44.8345L129.305 44.937L129.223 45.0395L129.076 44.9077L129.026 45.0102L128.944 45.0835L128.83 45.186L128.748 45.2592L128.666 45.3031L128.551 45.3764V45.4056L128.436 45.4496L128.321 45.4935L128.206 45.5374L128.091 45.5814L127.976 45.6253L127.862 45.6546L127.747 45.6839L127.616 45.7278L127.484 45.7571H127.435L127.304 45.7864H127.255H127.205H127.107H127.025H126.943H126.828H126.713H126.598H126.484L126.352 45.8157H126.221H126.123H125.959H125.795H125.631H125.45H125.286H125.073H121.956V37.6001H121.939Z" fill="#90EC65"/>
<path d="M131.52 45.8157V37.6001H133.39V40.8365H137.016V37.6001H138.869V45.8157H137.016V42.2424H133.39V45.8157H131.52Z" fill="#90EC65"/>
<path d="M149.91 37.6001H151.764V45.8157H149.91V37.6001ZM143.02 44.4538H144.825H144.989H145.153H145.317L145.448 44.4245H145.579H145.694L145.809 44.3952H145.924L146.006 44.3659H146.055L146.17 44.322L146.285 44.2927L146.399 44.2487L146.514 44.1755L146.596 44.1023L146.711 43.9998L146.793 43.9265L146.842 43.824L146.892 43.7215L146.924 43.619L146.957 43.5165V43.4433L146.99 43.3701L146.957 43.2529V43.1357L146.924 43.0332L146.875 42.9307L146.826 42.8282L146.777 42.755L146.728 42.6525L146.646 42.5792L146.531 42.5353L146.481 42.4914L146.399 42.4621L146.317 42.4182L146.203 42.3889L146.121 42.3596L145.989 42.3303L145.874 42.301L145.743 42.2717H145.628L145.464 42.2424H145.333H145.169L145.005 42.2131H144.956H143.02V44.4538ZM141.166 37.6001H143.02V40.8951H145.497H145.628H145.76L145.891 40.9244H146.022H146.153L146.285 40.9537L146.399 40.983H146.531L146.646 41.0123L146.76 41.0416L146.875 41.0709L146.99 41.1001L147.105 41.1441L147.22 41.1734L147.335 41.2173L147.449 41.2466L147.564 41.3198L147.679 41.3637L147.761 41.4077L147.876 41.4809L147.958 41.5541L148.073 41.6274L148.155 41.7006L148.237 41.8031L148.319 41.8763L148.401 41.9788L148.434 42.0228L148.516 42.1253L148.565 42.2278L148.614 42.3303L148.663 42.4328L148.713 42.5353L148.745 42.6378L148.795 42.7403L148.827 42.8575L148.86 42.96L148.893 43.0772V43.1797L148.926 43.2968V43.414V43.4872V43.6044V43.7215L148.893 43.8387L148.86 43.9412V44.0584L148.827 44.1609L148.778 44.2634L148.745 44.3805L148.696 44.483L148.663 44.5856L148.614 44.6881L148.565 44.7613L148.483 44.8638L148.434 44.9663L148.352 45.0688L148.237 45.1713L148.155 45.2738L148.073 45.3471L147.958 45.4203L147.876 45.4935L147.794 45.5667L147.679 45.6107L147.564 45.6546L147.482 45.6985L147.367 45.7425L147.285 45.7718L147.203 45.8011L147.121 45.8303L147.006 45.8596L146.892 45.8889L146.777 45.9182L146.662 45.9475H146.547L146.416 45.9768H146.285L146.153 46.0061H146.022H145.891H145.727H145.563H145.514H141.183V37.6001H141.166Z" fill="#90EC65"/>
<path d="M154.011 45.8157V37.6001H160.82V38.9913H155.865V40.8219H160.475V42.2131H155.865V44.4538H161V45.8157H154.011Z" fill="#90EC65"/>
<path d="M44.1626 58.1469V51.3225H41.4066V49.9313H48.7396V51.3225H46.0164V58.1469H44.1626Z" fill="#90EC65"/>
<path d="M50.2489 58.1469V49.9313H57.057V51.3225H52.1027V53.1531H56.7289V54.515H52.1027V56.7556H57.2375V58.1469H50.2489Z" fill="#90EC65"/>
<path d="M58.189 58.1469L61.3388 53.8414L58.4843 49.9313H60.6662L62.4872 52.5673L64.2917 49.9313H66.4572L63.6027 53.9146L66.7525 58.1469H64.5214L62.4708 55.3058L60.4201 58.1469H58.189Z" fill="#90EC65"/>
<path d="M68.0157 58.1469V49.9313H69.8695V53.1531H73.5114V49.9313H75.3652V58.1469H73.5114V54.5443H69.8695V58.1469H68.0157Z" fill="#90EC65"/>
<path d="M79.1384 54.0318V54.149V54.2661L79.1712 54.4126V54.5297L79.204 54.6469V54.764L79.2368 54.8665L79.2696 54.9837L79.3024 55.0862L79.3353 55.2034L79.3845 55.3059L79.4173 55.4084L79.4665 55.5109L79.4993 55.6134L79.5485 55.7159L79.5977 55.7891L79.647 55.8917L79.6962 55.9649L79.7454 56.0381L79.8274 56.1113L79.8766 56.1553L79.9586 56.2578L80.0407 56.331L80.1555 56.4042L80.2375 56.4774L80.3524 56.5214L80.4672 56.5946L80.5492 56.6385L80.6641 56.6825L80.7789 56.7264L80.8937 56.7557L81.0086 56.7996L81.1398 56.8289L81.2547 56.8582L81.3695 56.8875H81.5007H81.632L81.7468 56.9168H81.7796L81.9109 56.8875H82.0421H82.1569L82.2882 56.8582L82.403 56.8289L82.5179 56.7996L82.6327 56.7703L82.7475 56.7264L82.8624 56.6825L82.9772 56.6385L83.092 56.5946L83.2069 56.5507L83.2889 56.4774L83.4037 56.4335L83.4857 56.3603L83.5678 56.2578L83.6826 56.1846L83.7318 56.1113L83.8138 56.0381L83.8631 55.9649L83.9123 55.8624L83.9615 55.7891L84.0107 55.6866L84.0599 55.6134L84.0927 55.5109L84.142 55.4084L84.1748 55.3059L84.2076 55.2034L84.2404 55.0862L84.2732 54.9837L84.306 54.8665L84.3388 54.7494L84.3716 54.6322V54.5151L84.4044 54.3979V54.2808V54.1343V54.0172V53.8707V53.7536V53.6071L84.3716 53.49V53.3728L84.3388 53.2556L84.306 53.1385L84.2732 53.036L84.2404 52.9188L84.2076 52.8163L84.1748 52.7138L84.142 52.6113L84.0927 52.5088L84.0599 52.4063L84.0107 52.3037L83.9615 52.2305L83.9123 52.128L83.8631 52.0548L83.8138 51.9816L83.7318 51.9083L83.699 51.8644L83.617 51.7912L83.5022 51.718L83.4201 51.6447L83.3381 51.5715L83.2233 51.5276L83.1412 51.4544L83.0264 51.4104L82.9116 51.3665L82.7967 51.3372L82.6819 51.2933L82.5671 51.264L82.4358 51.2347L82.321 51.2054L82.1897 51.1761H81.9929L81.8616 51.1468H81.7304H81.6976H81.5664H81.4351L81.3203 51.1761L81.189 51.2054L81.0742 51.2347L80.943 51.264L80.8281 51.2933L80.7133 51.3226L80.5984 51.3665L80.4836 51.4104L80.3688 51.4544L80.2867 51.4983L80.1719 51.5715L80.0899 51.6154L79.9751 51.6887L79.893 51.7619L79.811 51.8351L79.7782 51.8644L79.729 51.9376L79.6798 52.0108L79.5977 52.0841L79.5485 52.1866L79.4993 52.2598L79.4501 52.3623L79.4173 52.4355L79.3681 52.5381L79.3353 52.6406L79.286 52.7431L79.2532 52.8456L79.2204 52.9627L79.1876 53.0653L79.1548 53.1824L79.122 53.2996V53.4167L79.0892 53.5339V53.651L79.0564 53.7682V53.9146V54.0318H79.1384ZM77.219 54.0904V53.9732V53.8268V53.695L77.2518 53.5778V53.4607L77.2846 53.3435V53.241L77.3174 53.1238V53.0067L77.3502 52.9042L77.383 52.8017L77.4158 52.6845L77.4487 52.582L77.4815 52.4795L77.5143 52.377L77.5635 52.2744L77.5963 52.1719L77.6291 52.0694L77.6783 51.9669L77.7111 51.923L77.7604 51.8205L77.8096 51.718L77.8588 51.6154L77.908 51.5129L77.9572 51.4104L78.0393 51.3079L78.1213 51.2347L78.1705 51.1322L78.2525 51.0297L78.3345 50.9564L78.4166 50.8539L78.4986 50.7807L78.5478 50.7368L78.6298 50.6635L78.7447 50.5903L78.8267 50.5171L78.9415 50.4439L79.0236 50.3707L79.1384 50.2974L79.2532 50.2535L79.3681 50.1803L79.4501 50.1363L79.5649 50.0924L79.6798 50.0485L79.7946 50.0192L79.9094 49.9753L80.0243 49.946L80.1391 49.902L80.2539 49.8727L80.3688 49.8435L80.4836 49.8142L80.6148 49.7849L80.7297 49.7556L80.8609 49.7263L80.9758 49.697H81.107L81.2218 49.6677H81.3531L81.4843 49.6384H81.6156H81.7468H81.796H81.9273H82.0585L82.1897 49.6677H82.321H82.4522L82.5835 49.697L82.6983 49.7263H82.8295L82.9444 49.7556L83.0756 49.7849L83.1905 49.8142L83.3053 49.8581L83.4365 49.8874L83.5514 49.9167L83.6662 49.9606L83.781 50.0045L83.8959 50.0338L84.0107 50.0778L84.1256 50.1217L84.2076 50.1656L84.3224 50.2096L84.4373 50.2828L84.5193 50.3267L84.6341 50.3999L84.7161 50.4439L84.7982 50.5171L84.913 50.5903L84.995 50.6635L85.077 50.7368L85.1263 50.7807L85.2083 50.8539L85.2903 50.9272L85.3723 51.0004L85.4216 51.0736L85.5036 51.1761L85.5528 51.2493L85.602 51.3518L85.684 51.4251L85.7333 51.5276L85.7825 51.6008L85.8317 51.7033L85.8645 51.8058L85.9137 51.9083L85.9629 52.0108L85.9957 52.1134L86.045 52.2159L86.0778 52.3184L86.1106 52.4355L86.1598 52.5381L86.1926 52.6406L86.2254 52.7577L86.2582 52.8602V52.9774L86.291 53.0945L86.3238 53.2117V53.3142L86.3566 53.4314V53.5485V53.6657L86.3895 53.8121V53.9293V53.9732V54.1197L86.3566 54.2368V54.354V54.4711V54.5883L86.3238 54.7055L86.291 54.8226V54.9251L86.2582 55.0423L86.2254 55.1594L86.1926 55.2619L86.1598 55.3791L86.127 55.4816L86.0942 55.5841L86.045 55.6866L86.0121 55.8038L85.9629 55.9063L85.9301 56.0088L85.8809 56.1113L85.8317 56.1846L85.7825 56.2871L85.7333 56.3896L85.684 56.4921L85.6348 56.5653L85.5856 56.6678L85.5364 56.741L85.4544 56.8143L85.4052 56.9168L85.3231 56.99L85.2411 57.0632L85.1591 57.1364V57.1657L85.077 57.239L84.9622 57.3122L84.8802 57.3854L84.7982 57.4293L84.7161 57.5026L84.6013 57.5758L84.5193 57.6197L84.4044 57.6929L84.3224 57.7369L84.2076 57.7808L84.0927 57.8247L83.9779 57.8687L83.8631 57.9126L83.7482 57.9565L83.6334 57.9858L83.5186 58.0298L83.4037 58.0591L83.2889 58.0883L83.1576 58.1323L83.0428 58.1616L82.928 58.1909H82.7967L82.6655 58.2201L82.5507 58.2494H82.4194L82.2882 58.2787H82.1569H82.0257L81.8945 58.308H81.8124L81.6812 58.2787H81.5499H81.4187H81.2875L81.1726 58.2494H81.0414L80.9101 58.2201L80.7953 58.1909L80.6641 58.1616L80.5492 58.1323L80.418 58.103L80.3032 58.0737L80.1883 58.0444L80.0735 58.0005L79.9422 57.9712L79.8274 57.9273L79.7126 57.8833L79.6305 57.854L79.5157 57.8101L79.4009 57.7662L79.286 57.6929L79.204 57.649L79.0892 57.6051L79.0071 57.5319L78.8923 57.4879L78.8103 57.4147L78.7283 57.3415L78.6462 57.2683L78.5314 57.195L78.4822 57.1511L78.4002 57.0779L78.3181 57.0046L78.2689 56.9314L78.1869 56.8289L78.1377 56.7557L78.0557 56.6825L78.0064 56.58L77.9572 56.5067L77.908 56.4042L77.8588 56.3017L77.8096 56.1992L77.7604 56.126L77.7111 56.0235L77.6783 55.921L77.6291 55.8184L77.5963 55.7159L77.5471 55.5988L77.5143 55.4963L77.4815 55.3937L77.4487 55.2766L77.4158 55.1741L77.383 55.0569L77.3502 54.9544L77.3174 54.8372V54.7201L77.2846 54.6029V54.4858L77.2518 54.3686V54.2515V54.1343V54.0904H77.219Z" fill="#90EC65"/>
<path d="M88.5549 49.9313H95.0185V58.1469H93.1648V51.3225H90.3923V54.8372V54.969V55.1155V55.2912V55.4083V55.5548V55.6719L90.3595 55.8184V55.9355V56.0527V56.1552V56.2724L90.3267 56.3749V56.4628V56.536L90.3103 56.6385V56.7117V56.7703L90.2775 56.8435V56.9167L90.2446 57.0485L90.2282 57.1657L90.179 57.2536L90.1462 57.3561L90.097 57.4732L90.015 57.5465L89.9494 57.649L89.8837 57.7075L89.8017 57.7808L89.7361 57.854L89.6541 57.9126L89.572 57.9565L89.4736 58.0004L89.3916 58.0444L89.2767 58.0737L89.1783 58.1029L89.0471 58.1176L88.8994 58.1469L88.801 58.1762H88.6369L88.5057 58.1908H88.3745H88.2924H88.2104H88.0956L87.9971 58.1762H87.8823H87.7511H87.587L87.4558 58.1469H87.2589L87.1769 58.1176V56.8435H87.587H87.7511H87.9151L88.0464 56.8289L88.1448 56.7996L88.2596 56.7703L88.3417 56.7556L88.3745 56.7117L88.4237 56.6531L88.4729 56.6092L88.5057 56.5067L88.5221 56.4188L88.5549 56.3017L88.5877 56.1552V56.0381L88.5549 54.6175V49.9313Z" fill="#90EC65"/>
<path d="M98.7917 54.0314V54.1486V54.2658V54.4122L98.8245 54.5294V54.6465L98.8574 54.7637L98.8902 54.8662L98.923 54.9833L98.9558 55.0858L98.9886 55.203L99.0214 55.3055L99.0542 55.408L99.1034 55.5105L99.1527 55.613L99.1855 55.7156L99.2347 55.7888L99.2839 55.8913L99.3659 55.9645L99.4151 56.0377L99.4644 56.111L99.5136 56.1549L99.6284 56.2574L99.7104 56.3306L99.7925 56.4039L99.9073 56.4771L99.9893 56.521L100.104 56.5942L100.219 56.6382L100.334 56.6821L100.416 56.726L100.547 56.7553L100.662 56.7993L100.777 56.8286L100.892 56.8578L101.023 56.8871H101.138H101.269L101.4 56.9164L101.531 56.8871H101.663H101.794L101.909 56.8578L102.024 56.8286L102.155 56.7993L102.27 56.77L102.384 56.726L102.499 56.6821L102.614 56.6382L102.696 56.5942L102.811 56.5503L102.926 56.4771L103.008 56.4331L103.123 56.3599L103.205 56.2574L103.287 56.1842L103.369 56.111L103.418 56.0377L103.467 55.9645L103.516 55.862L103.566 55.7888L103.615 55.6863L103.664 55.613L103.713 55.5105L103.746 55.408L103.779 55.3055L103.828 55.203L103.861 55.0858L103.894 54.9833L103.927 54.8662L103.959 54.749V54.6319L103.992 54.5147V54.3975V54.2804L104.025 54.1339V54.0168V53.8703L103.992 53.7532V53.6067V53.4896L103.959 53.3724V53.2553L103.927 53.1381L103.894 53.0356L103.861 52.9185L103.828 52.8159L103.779 52.7134L103.746 52.6109L103.713 52.5084L103.664 52.4059L103.615 52.3034L103.566 52.2302L103.516 52.1276L103.467 52.0544L103.418 51.9812L103.369 51.908L103.32 51.864L103.238 51.7908L103.156 51.7176L103.041 51.6444L102.959 51.5711L102.877 51.5272L102.762 51.454L102.647 51.4101L102.532 51.3661L102.417 51.3368L102.302 51.2929L102.188 51.2636L102.073 51.2343L101.942 51.205L101.827 51.1757H101.695L101.564 51.1465H101.351H101.318H101.203H101.072L100.941 51.1757L100.826 51.205L100.695 51.2343L100.58 51.2636L100.465 51.2929L100.334 51.3222L100.219 51.3661L100.137 51.4101L100.022 51.454L99.9073 51.4979L99.8253 51.5711L99.7104 51.6151L99.6284 51.6883L99.5464 51.7615L99.4315 51.8347V51.864L99.3495 51.9373L99.3003 52.0105L99.2511 52.0837L99.2019 52.1862L99.1527 52.2594L99.1034 52.362L99.0542 52.4352L99.0214 52.5377L98.9722 52.6402L98.9394 52.7427L98.8902 52.8452V52.9624L98.8574 53.0649L98.8245 53.1821V53.2992L98.7917 53.4164L98.7589 53.5335V53.6507V53.7678V53.9143V54.0314H98.7917ZM96.8559 54.09V53.9729L96.8887 53.8264V53.6946V53.5775V53.4603L96.9216 53.3431V53.2406L96.9544 53.1235L96.9872 53.0063L97.02 52.9038V52.8159L97.0528 52.6988L97.0856 52.5963L97.1184 52.4938L97.1676 52.3912L97.2004 52.2887L97.2333 52.1862L97.2825 52.0837L97.3153 51.9812L97.3481 51.9373L97.3973 51.8347L97.4465 51.7322L97.4957 51.6297L97.545 51.5272L97.627 51.4247L97.6762 51.3222L97.7582 51.249L97.8402 51.1465L97.8895 51.0439L97.9715 50.9707L98.0535 50.8682L98.1683 50.795L98.2012 50.7511L98.2832 50.6778L98.398 50.6046L98.48 50.5314L98.5949 50.4582L98.7097 50.3849L98.7917 50.3117L98.9066 50.2678L99.0214 50.1946L99.1363 50.1506L99.2511 50.1067L99.3659 50.0628L99.448 50.0335L99.5628 49.9895L99.6776 49.9602L99.7925 49.9163L99.9073 49.887L100.022 49.8577L100.153 49.8284L100.268 49.7992L100.383 49.7699L100.514 49.7406L100.646 49.7113H100.76L100.892 49.682H101.023L101.138 49.6527H101.269H101.4H101.482H101.613H101.745L101.876 49.682H102.007H102.122L102.253 49.7113L102.384 49.7406H102.499L102.631 49.7699L102.745 49.7992L102.877 49.8284L102.991 49.8724L103.106 49.9017L103.221 49.931L103.336 49.9749L103.451 50.0188L103.566 50.0481L103.68 50.092L103.795 50.136L103.91 50.1799L103.992 50.2238L104.107 50.2971L104.222 50.341L104.304 50.4142L104.419 50.4582L104.501 50.5314L104.583 50.6046L104.665 50.6778L104.747 50.7511L104.829 50.795L104.911 50.8682L104.96 50.9414L105.042 51.0147L105.124 51.0879L105.173 51.1904L105.223 51.2636L105.305 51.3661L105.354 51.4393L105.403 51.5419L105.452 51.6151L105.501 51.7176L105.551 51.8201L105.583 51.9226L105.633 52.0251L105.682 52.1276L105.715 52.2302L105.748 52.3327L105.797 52.4498L105.83 52.5523L105.862 52.6548L105.895 52.772L105.928 52.8745L105.961 52.9917V53.1088L105.994 53.226L106.026 53.3285V53.4457V53.5628L106.059 53.68V53.8264V53.9436V53.9875V54.1339V54.2511V54.3683L106.026 54.4854V54.6026L105.994 54.7197V54.8369L105.961 54.9394L105.928 55.0566L105.895 55.1737L105.862 55.2762L105.83 55.3934L105.797 55.4959L105.764 55.5984L105.731 55.7009L105.682 55.8181L105.649 55.9206L105.6 56.0231L105.551 56.1256L105.518 56.1988L105.469 56.3013L105.419 56.4039L105.37 56.5064L105.288 56.5796L105.239 56.6821L105.19 56.7553L105.108 56.8286L105.059 56.9311L104.976 57.0043L104.927 57.0775L104.845 57.1507L104.812 57.18L104.73 57.2532L104.648 57.3265L104.566 57.3997L104.452 57.4436L104.14 57.5022L104.058 57.5754L103.943 57.6194L103.861 57.6926L103.746 57.7365L103.631 57.7804L103.516 57.8244L103.434 57.8683L103.32 57.9122L103.205 57.9562L103.09 57.9855L102.975 58.0294L102.844 58.0587L102.729 58.088L102.614 58.1319L102.483 58.1612L102.368 58.1905H102.237L102.122 58.2198L101.991 58.2491H101.859L101.745 58.2784H101.613H101.482L101.351 58.3077L101.22 58.2784H101.088H100.957H100.826L100.695 58.2491H100.531L100.416 58.2198L100.285 58.1905L100.153 58.1612L100.039 58.1319L99.9237 58.1026L99.7925 58.0733L99.6776 58.0441L99.5628 58.0001L99.448 57.9708L99.3331 57.9269L99.2183 57.883L99.1034 57.8537L98.9886 57.8097L98.8738 57.7658L98.7917 57.6926L98.6769 57.6486L98.5949 57.6047L98.48 57.5315L98.398 57.4876L98.2832 57.4143L98.2012 57.3411L98.1191 57.2679L98.0371 57.1947L97.9551 57.1507L97.9059 57.0775L97.8238 57.0043L97.7418 56.9311L97.6926 56.8286L97.6106 56.7553L97.5614 56.6821L97.4793 56.5796L97.4301 56.5064L97.3809 56.4039L97.3317 56.3013L97.2825 56.1988L97.2333 56.1256L97.2004 56.0231L97.1512 55.9206L97.102 55.8181L97.0692 55.7156L97.0364 55.5984L96.9872 55.4959L96.9544 55.3934L96.9216 55.2762L96.8887 55.1737L96.8559 55.0566L96.8231 54.954V54.8369L96.7903 54.7197V54.6026L96.7575 54.4854V54.3683V54.2511V54.1339L96.8559 54.09Z" fill="#90EC65"/>
<path d="M107.651 49.9313H113.868V51.2932H109.504V58.1469H107.651V49.9313Z" fill="#90EC65"/>
<path d="M115.164 49.9313H116.903V55.3791L120.627 49.9313H122.481V58.1469H120.758V52.787L117.018 58.1469H115.164V49.9313Z" fill="#90EC65"/>
<path d="M124.712 49.9313H126.467V55.3791L130.175 49.9313H132.045V58.1469H130.29V52.787L126.566 58.1469H124.712V49.9313Z" fill="#90EC65"/>
<path d="M5.24962 0.681385L5.03636 0.652097L4.47858 0.637451L4.28172 0.652097L3.9044 0.681385L3.65833 0.725319H5.61054L5.24962 0.681385Z" fill="#90EC65"/>
<path d="M5.61053 0.72522H3.65832L3.34662 0.798443H5.8402L5.61053 0.72522Z" fill="#90EC65"/>
<path d="M5.84024 0.798462H3.34666L3.10059 0.871685H6.13554L5.84024 0.798462Z" fill="#90EC65"/>
<path d="M6.13554 0.871704H3.10059L2.8053 0.974216H6.38162L6.13554 0.871704Z" fill="#90EC65"/>
<path d="M8.51424 2.58527L8.35019 2.3656L8.18614 2.17522L8.00568 1.98484L7.79242 1.80911L7.59556 1.61873L7.34948 1.47228L7.13621 1.32583L6.89013 1.17939L6.66046 1.06223L6.38158 0.974365H2.80526L2.59199 1.06223L2.3131 1.17939L2.08343 1.32583L1.83735 1.47228L1.62409 1.61873L1.41082 1.80911L1.21396 1.98484L1.0335 2.17522L0.869451 2.3656L0.705399 2.58527L0.574158 2.79029H8.6783L8.51424 2.58527Z" fill="#90EC65"/>
<path d="M8.8916 3.25867L8.77677 3.039L8.67834 2.79004H0.574202L0.442962 3.039L0.328125 3.25867H8.8916Z" fill="#90EC65"/>
<path d="M8.89157 3.25891H0.328092L0.213257 3.49322H8.9736L8.89157 3.25891Z" fill="#90EC65"/>
<path d="M8.97362 3.49316H0.213278L0.164062 3.75677H9.07205L8.97362 3.49316Z" fill="#90EC65"/>
<path d="M9.18687 4.24011L9.13765 3.99115L9.07203 3.75684H0.164043L0.0820177 3.99115L0.0656128 4.24011H9.18687Z" fill="#90EC65"/>
<path d="M9.18688 4.23999H0.0656208L0 4.50359H9.18688V4.23999Z" fill="#90EC65"/>
<path d="M9.18688 4.50366H0V4.73797H9.21969L9.18688 4.50366Z" fill="#90EC65"/>
<path d="M0 4.73792V5.00152H9.18688L9.21969 4.73792H0Z" fill="#90EC65"/>
<path d="M0.0656208 5.25054H9.18688V5.00159H0L0.0656208 5.25054Z" fill="#90EC65"/>
<path d="M0.0820177 5.51409H9.13765L9.18687 5.25049H0.0656128L0.0820177 5.51409Z" fill="#90EC65"/>
<path d="M0.164057 5.74847H9.07205L9.13767 5.51416H0.0820312L0.164057 5.74847Z" fill="#90EC65"/>
<path d="M0.213278 5.99737L0.328114 6.23168H8.89159L8.97362 5.99737L9.07205 5.74841H0.164062L0.213278 5.99737Z" fill="#90EC65"/>
<path d="M0.442962 6.48053H8.77677L8.8916 6.23157H0.328125L0.442962 6.48053Z" fill="#90EC65"/>
<path d="M0.574172 6.68574L0.705414 6.9054H8.51426L8.67831 6.68574L8.77674 6.48071H0.442932L0.574172 6.68574Z" fill="#90EC65"/>
<path d="M0.705444 6.9054L0.869496 7.12506L1.03355 7.31544L1.214 7.50582L1.41087 7.6962L1.62413 7.87194L1.8374 8.03303L2.08348 8.17947L2.31315 8.29663L2.59203 8.41379L2.8053 8.54559L3.10059 8.61881H6.13555L6.38162 8.54559L6.66051 8.41379L6.89018 8.29663L7.13626 8.17947L7.34952 8.03303L7.5956 7.87194L7.79246 7.6962L8.00573 7.50582L8.18619 7.31544L8.35024 7.12506L8.51429 6.9054H0.705444Z" fill="#90EC65"/>
<path d="M3.34666 8.70664L3.65836 8.75058H3.67477L3.90444 8.80915L4.28176 8.8238L4.47862 8.85309L5.03639 8.8238L5.24966 8.80915L5.61057 8.75058L5.84024 8.70664L6.13554 8.61877H3.10059L3.34666 8.70664Z" fill="#90EC65"/>
<path d="M23.0164 33.4852V21.1838H36.8131V12.9682H23.0164V0.637451H13.8131V12.9682H0V21.1838H13.8131V33.4852L13.8459 33.9978H23.0492L23.0164 33.4852Z" fill="#90EC65"/>
<path d="M23.1313 34.3787L23.0492 33.9979H13.8459V34.3787L13.8624 34.4666H23.1641L23.1313 34.3787Z" fill="#90EC65"/>
<path d="M23.3281 34.9497L23.1641 34.4664H13.8624L13.928 34.9497H23.3281Z" fill="#90EC65"/>
<path d="M23.3281 34.9498H13.928L13.9444 35.2427H23.4594L23.3281 34.9498Z" fill="#90EC65"/>
<path d="M23.5413 35.4038L23.4593 35.2427H13.9443L13.9771 35.4038L14.0592 35.8431H23.8366L23.5413 35.4038Z" fill="#90EC65"/>
<path d="M14.3873 36.9706H25.1819L24.985 36.8828L24.5585 36.5606L24.1812 36.2238L24.0663 36.1066L23.8367 35.843H14.0592L14.1412 36.1066L14.174 36.2238L14.2397 36.5606L14.3545 36.8828L14.3873 36.9706Z" fill="#90EC65"/>
<path d="M36.8132 41.569V40.8953V40.1631V39.4016V38.6108V37.82V37.6003H27.6263L27.0685 37.571L26.5271 37.4831L25.9858 37.3367L25.4772 37.1463L25.1819 36.9706H14.3873L14.4365 37.1463L14.5186 37.3367L14.5678 37.4831L14.6006 37.571V37.6003L14.6826 37.82L15.0599 38.6108L15.5193 39.4016L15.995 40.1631L16.5692 40.8953L17.1762 41.569H36.8132Z" fill="#90EC65"/>
<path d="M36.8131 42.2133V41.569H17.1761L17.8488 42.2133H36.8131Z" fill="#90EC65"/>
<path d="M36.8132 43.8682V43.3703V42.8138V42.2134H17.8488L18.587 42.8138L19.3417 43.3703L20.1455 43.8682H36.8132Z" fill="#90EC65"/>
<path d="M36.8131 44.3074V43.868H20.1455L20.9986 44.3074H36.8131Z" fill="#90EC65"/>
<path d="M36.8131 45.3178V45.0542V44.7174V44.3074H20.9986L21.9009 44.7174L22.7868 45.0542L23.7218 45.3178H36.8131Z" fill="#90EC65"/>
<path d="M36.8131 45.6988V45.523V45.318H23.7218L24.6897 45.523L25.6576 45.6988L26.6255 45.7866H36.8131V45.6988Z" fill="#90EC65"/>
<path d="M27.6263 45.816H36.8131V45.7867H26.6255L27.6263 45.816Z" fill="#90EC65"/>
<path d="M9.2689 34.7152L9.23609 34.4955L9.21968 33.485V25.2987H0V33.485L0.032811 34.4955V34.7152H9.2689Z" fill="#90EC65"/>
<path d="M9.35095 35.4767L9.26893 34.7152H0.0328369L0.114863 35.4767L0.131267 35.9161H9.43298L9.35095 35.4767Z" fill="#90EC65"/>
<path d="M9.66261 37.1169L9.51496 36.4725L9.43294 35.916H0.131226L0.213251 36.4725L0.295277 37.1169H9.66261Z" fill="#90EC65"/>
<path d="M9.74465 37.4242L9.66262 37.1167H0.295288L0.360909 37.4242L0.541365 38.3176H10.0235L9.74465 37.4242Z" fill="#90EC65"/>
<path d="M0.541382 38.391H10.04L10.0236 38.3177H0.541382V38.391Z" fill="#90EC65"/>
<path d="M11.0407 40.6463L10.8274 40.2362L10.4829 39.4893L10.4009 39.3282L10.04 38.391H0.541382L0.787459 39.3282L0.836675 39.4893L1.04994 40.2362L1.18118 40.6463L1.37804 41.1295H11.3196L11.0407 40.6463Z" fill="#90EC65"/>
<path d="M11.7461 41.803L11.3196 41.1294H1.37805L1.62413 41.803H11.7461Z" fill="#90EC65"/>
<path d="M12.4679 42.8427L11.8445 41.9934L11.7461 41.803H1.62408L1.70611 41.9934L2.08343 42.8427H12.4679Z" fill="#90EC65"/>
<path d="M12.4679 42.843H2.08344L2.09984 42.9309H12.5499L12.4679 42.843Z" fill="#90EC65"/>
<path d="M12.5499 42.9308H2.09985L2.46077 43.6337H13.1241L12.5499 42.9308Z" fill="#90EC65"/>
<path d="M13.8459 44.3951L13.5014 44.0436L13.1241 43.6335H2.46075L2.67402 44.0436L2.85448 44.3951L3.26461 45.1273H14.6006L13.8459 44.3951Z" fill="#90EC65"/>
<path d="M15.4044 45.7864L14.6006 45.1274H3.26465L3.69118 45.7864H15.4044Z" fill="#90EC65"/>
<path d="M16.2739 46.4455L15.913 46.1819L15.4044 45.7865H3.69116L3.93724 46.1819L4.1177 46.4455H16.2739Z" fill="#90EC65"/>
<path d="M19.0628 48.0563L18.0949 47.5438L17.4551 47.1923L17.1598 47.0166L16.2739 46.4454H4.11768L4.5278 47.0166L4.65905 47.1923L4.95434 47.5438L5.33165 48.0563H19.0628Z" fill="#90EC65"/>
<path d="M6.33238 49.184H22.1305L21.9665 49.1401L21.0806 48.8765L20.0635 48.4811L19.3581 48.1736L19.0628 48.0564H5.33167L5.4465 48.1736L5.70898 48.4811L6.03709 48.8765L6.28316 49.1401L6.33238 49.184Z" fill="#90EC65"/>
<path d="M22.1305 49.1838H6.3324L6.57847 49.4474H23.2133L22.1305 49.1838Z" fill="#90EC65"/>
<path d="M36.8131 50.0481V49.9309H27.6262L26.4943 49.9016L25.3951 49.8137L24.296 49.6673L23.2132 49.4476H6.57843L6.7917 49.6673L6.92294 49.8137L7.00496 49.9016L7.03777 49.9309L7.16901 50.0481L8.0877 50.9414H36.8131V50.0481Z" fill="#90EC65"/>
<path d="M9.07202 51.7467L10.1055 52.5522L11.1719 53.2991L12.2874 53.9874H36.8131V53.2991V52.5522V51.7467V50.9413H8.08771L9.07202 51.7467Z" fill="#90EC65"/>
<path d="M13.4194 54.6318H36.8132V53.9874H12.2875L13.4194 54.6318Z" fill="#90EC65"/>
<path d="M14.6005 55.2323L15.8145 55.7741L17.0449 56.272H36.8131V55.7741V55.2323V54.6318H13.4194L14.6005 55.2323Z" fill="#90EC65"/>
<path d="M18.3081 56.7113H36.8131V56.272H17.0449L18.3081 56.7113Z" fill="#90EC65"/>
<path d="M19.6041 57.0921L20.9001 57.3996L22.2125 57.6632H36.8131V57.3996V57.0921V56.7113H18.3081L19.6041 57.0921Z" fill="#90EC65"/>
<path d="M23.5577 57.8829H36.8131V57.6632H22.2125L23.5577 57.8829Z" fill="#90EC65"/>
<path d="M36.8132 58.0293V57.8828H23.5578L24.903 58.0293L26.2482 58.1171H36.8132V58.0293Z" fill="#90EC65"/>
<path d="M27.6263 58.1464H36.8131V58.1171H26.2482L27.6263 58.1464Z" fill="#90EC65"/>
</svg>
